<?xml version="1.0" encoding="us-ascii" standalone="no"?><svg xmlns="http://www.w3.org/2000/svg" xmlns:xlink="http://www.w3.org/1999/xlink" contentStyleType="text/css" height="450px" preserveAspectRatio="none" style="width:725px;height:450px;background:#FFFFFF;" version="1.1" viewBox="0 0 725 450" width="725px" zoomAndPan="magnify"><defs/><g><!--cluster Godot--><g id="cluster_Godot"><polygon fill="none" points="103.35,16,113.35,6,486.81,6,486.81,165,476.81,175,103.35,175,103.35,16" style="stroke:#181818;stroke-width:1.0;"/><line style="stroke:#181818;stroke-width:1.0;" x1="476.81" x2="486.81" y1="16" y2="6"/><line style="stroke:#181818;stroke-width:1.0;" x1="103.35" x2="476.81" y1="16" y2="16"/><line style="stroke:#181818;stroke-width:1.0;" x1="476.81" x2="476.81" y1="16" y2="175"/><text fill="#000000" font-family="sans-serif" font-size="14" font-weight="bold" lengthAdjust="spacing" textLength="48" x="267.08" y="31.9951">Godot</text></g><!--cluster GodotAddon--><g id="cluster_GodotAddon"><path d="M314.31,54 L366.31,54 A3.75,3.75 0 0 1 368.81,56.5 L375.81,76.2969 L460.31,76.2969 A2.5,2.5 0 0 1 462.81,78.7969 L462.81,148.5 A2.5,2.5 0 0 1 460.31,151 L314.31,151 A2.5,2.5 0 0 1 311.81,148.5 L311.81,56.5 A2.5,2.5 0 0 1 314.31,54 " fill="none" style="stroke:#000000;stroke-width:1.5;"/><line style="stroke:#000000;stroke-width:1.5;" x1="311.81" x2="375.81" y1="76.2969" y2="76.2969"/><text fill="#000000" font-family="sans-serif" font-size="14" font-weight="bold" lengthAdjust="spacing" textLength="51" x="315.81" y="68.9951">Addon</text></g><!--cluster docker--><g id="cluster_docker"><polygon fill="none" points="85,209,95,199,708.81,199,708.81,423,698.81,433,85,433,85,209" style="stroke:#181818;stroke-width:1.0;"/><line style="stroke:#181818;stroke-width:1.0;" x1="698.81" x2="708.81" y1="209" y2="199"/><line style="stroke:#181818;stroke-width:1.0;" x1="85" x2="698.81" y1="209" y2="209"/><line style="stroke:#181818;stroke-width:1.0;" x1="698.81" x2="698.81" y1="209" y2="433"/><text fill="#000000" font-family="sans-serif" font-size="14" font-weight="bold" lengthAdjust="spacing" textLength="138" x="323.905" y="224.9951">Docker Container</text></g><!--cluster Rails--><g id="cluster_Rails"><rect fill="none" height="162" rx="2.5" ry="2.5" style="stroke:#181818;stroke-width:1.0;" width="575.81" x="109" y="247"/><text fill="#000000" font-family="sans-serif" font-size="14" font-weight="bold" lengthAdjust="spacing" textLength="36" x="378.905" y="261.9951">Rails</text></g><g id="elem_PlayGame"><ellipse cx="182.0849" cy="78.997" fill="#F1F1F1" rx="62.7349" ry="14.947" style="stroke:#181818;stroke-width:0.5;"/><text fill="#000000" font-family="sans-serif" font-size="14" lengthAdjust="spacing" textLength="72" x="143.0849" y="82.7445">Play Game</text></g><g id="elem_AutoTest"><ellipse cx="182.0764" cy="144.0022" fill="#F1F1F1" rx="60.0664" ry="14.7722" style="stroke:#181818;stroke-width:0.5;"/><text fill="#000000" font-family="sans-serif" font-size="14" lengthAdjust="spacing" textLength="67" x="145.5764" y="147.7498">Auto Test</text></g><!--entity GodotWebsocket--><g id="elem_GodotWebsocket"><rect fill="#F1F1F1" height="46.2969" rx="2.5" ry="2.5" style="stroke:#181818;stroke-width:0.5;" width="119" x="327.81" y="88.85"/><rect fill="#F1F1F1" height="10" style="stroke:#181818;stroke-width:0.5;" width="15" x="426.81" y="93.85"/><rect fill="#F1F1F1" height="2" style="stroke:#181818;stroke-width:0.5;" width="4" x="424.81" y="95.85"/><rect fill="#F1F1F1" height="2" style="stroke:#181818;stroke-width:0.5;" width="4" x="424.81" y="99.85"/><text fill="#000000" font-family="sans-serif" font-size="14" lengthAdjust="spacing" textLength="79" x="342.81" y="121.8451">WebSocket</text></g><g id="elem_SeeLogs"><ellipse cx="387.3065" cy="377.9966" fill="#F1F1F1" rx="57.8265" ry="14.7566" style="stroke:#181818;stroke-width:0.5;"/><text fill="#000000" font-family="sans-serif" font-size="14" lengthAdjust="spacing" textLength="64" x="352.3065" y="381.7441">See Logs</text></g><g id="elem_RunTest"><ellipse cx="182.0799" cy="305.0011" fill="#F1F1F1" rx="57.0799" ry="14.7511" style="stroke:#181818;stroke-width:0.5;"/><text fill="#000000" font-family="sans-serif" font-size="14" lengthAdjust="spacing" textLength="63" x="147.5799" y="308.7487">Run Test</text></g><!--entity RailsWebsocket--><g id="elem_RailsWebsocket"><rect fill="#F1F1F1" height="46.2969" rx="2.5" ry="2.5" style="stroke:#181818;stroke-width:0.5;" width="119" x="327.81" y="281.85"/><rect fill="#F1F1F1" height="10" style="stroke:#181818;stroke-width:0.5;" width="15" x="426.81" y="286.85"/><rect fill="#F1F1F1" height="2" style="stroke:#181818;stroke-width:0.5;" width="4" x="424.81" y="288.85"/><rect fill="#F1F1F1" height="2" style="stroke:#181818;stroke-width:0.5;" width="4" x="424.81" y="292.85"/><text fill="#000000" font-family="sans-serif" font-size="14" lengthAdjust="spacing" textLength="79" x="342.81" y="314.8451">WebSocket</text></g><!--entity DB--><g id="elem_DB"><path d="M604.81,333.35 C604.81,323.35 636.81,323.35 636.81,323.35 C636.81,323.35 668.81,323.35 668.81,333.35 L668.81,358.6469 C668.81,368.6469 636.81,368.6469 636.81,368.6469 C636.81,368.6469 604.81,368.6469 604.81,358.6469 L604.81,333.35 " fill="#F1F1F1" style="stroke:#181818;stroke-width:0.5;"/><path d="M604.81,333.35 C604.81,343.35 636.81,343.35 636.81,343.35 C636.81,343.35 668.81,343.35 668.81,333.35 " fill="none" style="stroke:#181818;stroke-width:0.5;"/><text fill="#000000" font-family="sans-serif" font-size="14" lengthAdjust="spacing" textLength="44" x="614.81" y="360.3451">SQLite</text></g><!--entity User--><g id="elem_User"><ellipse cx="22" cy="275.35" fill="#F1F1F1" rx="8" ry="8" style="stroke:#181818;stroke-width:0.5;"/><path d="M22,283.35 L22,310.35 M9,291.35 L35,291.35 M22,310.35 L9,325.35 M22,310.35 L35,325.35 " fill="none" style="stroke:#181818;stroke-width:0.5;"/><text fill="#000000" font-family="sans-serif" font-size="14" lengthAdjust="spacing" textLength="32" x="6" y="339.8451">User</text></g><!--link User to PlayGame--><g id="link_User_PlayGame"><path d="M23.4,266.39 C25.94,223.18 36.62,153.78 77,112 C89.91,98.64 102.3955,92.227 120.0355,87.487 " fill="none" id="User-to-PlayGame" style="stroke:#181818;stroke-width:1.0;"/><polygon fill="#181818" points="125.83,85.93,116.1003,84.4026,121.0013,87.2275,118.1763,92.1285,125.83,85.93" style="stroke:#181818;stroke-width:1.0;"/></g><!--link PlayGame to GodotWebsocket--><g id="link_PlayGame_GodotWebsocket"><path d="M234.89,87.41 C263.12,92 292.2279,96.7166 321.4879,101.4766 " fill="none" id="PlayGame-to-GodotWebsocket" style="stroke:#181818;stroke-width:1.0;stroke-dasharray:7.0,7.0;"/><polygon fill="#181818" points="327.41,102.44,319.1691,97.0468,322.4749,101.6372,317.8845,104.943,327.41,102.44" style="stroke:#181818;stroke-width:1.0;"/><text fill="#000000" font-family="sans-serif" font-size="13" lengthAdjust="spacing" textLength="19" x="275.81" y="91.0669">log</text></g><!--link GodotWebsocket to RailsWebsocket--><g id="link_GodotWebsocket_RailsWebsocket"><path d="M387.31,135.52 C387.31,184.22 387.31,226.93 387.31,275.63 " fill="none" id="GodotWebsocket-to-RailsWebsocket" style="stroke:#181818;stroke-width:1.0;"/><polygon fill="#181818" points="387.31,281.63,391.31,272.63,387.31,276.63,383.31,272.63,387.31,281.63" style="stroke:#181818;stroke-width:1.0;"/></g><!--link RailsWebsocket to GodotWebsocket--><g id="link_RailsWebsocket_GodotWebsocket"><path d="M387.31,281.63 C387.31,232.93 387.31,190.22 387.31,141.52 " fill="none" id="RailsWebsocket-to-GodotWebsocket" style="stroke:#181818;stroke-width:1.0;"/><polygon fill="#181818" points="387.31,135.52,383.31,144.52,387.31,140.52,391.31,144.52,387.31,135.52" style="stroke:#181818;stroke-width:1.0;"/></g><!--link RailsWebsocket to DB--><g id="link_RailsWebsocket_DB"><path d="M447.28,314.77 C496.61,322.94 559.1407,333.2992 598.5507,339.8292 " fill="none" id="RailsWebsocket-to-DB" style="stroke:#181818;stroke-width:1.0;"/><polygon fill="#181818" points="604.47,340.81,596.2449,335.3926,599.5373,339.9927,594.9372,343.285,604.47,340.81" style="stroke:#181818;stroke-width:1.0;"/><text fill="#000000" font-family="sans-serif" font-size="13" lengthAdjust="spacing" textLength="70" x="503.81" y="321.0669">Insert Logs</text></g><!--link User to SeeLogs--><g id="link_User_SeeLogs"><path d="M38.24,316.31 C48.63,323.42 63,332.15 77,337 C161.59,366.29 259.8643,374.6236 323.1543,377.0136 " fill="none" id="User-to-SeeLogs" style="stroke:#181818;stroke-width:1.0;"/><polygon fill="#181818" points="329.15,377.24,320.3074,372.9032,324.1536,377.0513,320.0055,380.8975,329.15,377.24" style="stroke:#181818;stroke-width:1.0;"/></g><!--reverse link SeeLogs to DB--><g id="link_SeeLogs_DB"><path d="M447.4138,371.7223 C484.7738,367.6023 529.94,362.32 574.81,356 C584.49,354.64 594.99,352.98 604.51,351.41 " fill="none" id="SeeLogs-backto-DB" style="stroke:#181818;stroke-width:1.0;stroke-dasharray:7.0,7.0;"/><polygon fill="#181818" points="441.45,372.38,450.8342,375.3694,446.4199,371.8319,449.9573,367.4176,441.45,372.38" style="stroke:#181818;stroke-width:1.0;"/></g><!--link User to RunTest--><g id="link_User_RunTest"><path d="M38.45,305 C58.33,305 87.99,305 118.68,305 " fill="none" id="User-to-RunTest" style="stroke:#181818;stroke-width:1.0;"/><polygon fill="#181818" points="124.68,305,115.68,301,119.68,305,115.68,309,124.68,305" style="stroke:#181818;stroke-width:1.0;"/></g><!--link RunTest to RailsWebsocket--><g id="link_RunTest_RailsWebsocket"><path d="M239.42,305 C266.79,305 293.67,305 321.38,305 " fill="none" id="RunTest-to-RailsWebsocket" style="stroke:#181818;stroke-width:1.0;stroke-dasharray:7.0,7.0;"/><polygon fill="#181818" points="327.38,305,318.38,301,322.38,305,318.38,309,327.38,305" style="stroke:#181818;stroke-width:1.0;"/></g><!--reverse link AutoTest to GodotWebsocket--><g id="link_AutoTest_GodotWebsocket"><path d="M241.562,136.0877 C260.552,133.4277 276.2,131.13 295.81,128 C306.06,126.37 316.93,124.53 327.46,122.7 " fill="none" id="AutoTest-backto-GodotWebsocket" style="stroke:#181818;stroke-width:1.0;stroke-dasharray:7.0,7.0;"/><polygon fill="#181818" points="235.62,136.92,245.0879,139.6329,240.5717,136.2264,243.9781,131.7102,235.62,136.92" style="stroke:#181818;stroke-width:1.0;"/></g><!--SRC=[XLB1JiCm33qtNs7jldu0GfCObIQa7M03SK0SlCQKQ2L6INf0QFzExBRhrWkd-FavzlDBi4uSu2LICCQp9LXis79Q04RG27vDqKMgCMRkiSKVsE0NAIz8m4N1NPSOdYds3GG9CARunlg8ZLHOotvghr1c56-lTDXpVQJqVcPpAchA52Tp6XLMaWfmppwXynIqc-sJkLEWEg5lsbovGzT6fJNIEMUjUoBOSjFp6KXyoUywFwsImR39NAXsdeJc0ei93_s8fwrBlLdLUjZ1jFIH8DiKNFEPm3hHwzWR8wy0o-LgCdOCe2nNCqVW1bfkp2mfjsU2hg5MLEjy-y7dSKaTk1Wz-Z2SS5kM8dqg68qOJbNs_yJPQuuVGzjVSty0]--></g></svg>